<svg width="158" height="46" viewBox="0 0 158 46" fill="none" xmlns="http://www.w3.org/2000/svg">
<g clip-path="url(#clip0_59_1103)">
<path d="M36.5575 0H9.44253C4.22757 0 0 4.22757 0 9.44253V36.5575C0 41.7724 4.22757 46 9.44253 46H36.5575C41.7724 46 46 41.7724 46 36.5575V9.44253C46 4.22757 41.7724 0 36.5575 0Z" fill="url(#paint0_linear_59_1103)"/>
<path opacity="0.36" d="M22.9996 45.8587C35.6243 45.8587 45.8586 35.6244 45.8586 22.9997C45.8586 10.375 35.6243 0.140717 22.9996 0.140717C10.3749 0.140717 0.140625 10.375 0.140625 22.9997C0.140625 35.6244 10.3749 45.8587 22.9996 45.8587Z" fill="#1961EA"/>
<path opacity="0.43" d="M22.9997 40.8832C32.8765 40.8832 40.8832 32.8765 40.8832 22.9997C40.8832 13.1229 32.8765 5.11621 22.9997 5.11621C13.1229 5.11621 5.11621 13.1229 5.11621 22.9997C5.11621 32.8765 13.1229 40.8832 22.9997 40.8832Z" fill="#2971ED"/>
<path d="M16.2839 31.5783C19.8245 31.5783 22.6948 28.7081 22.6948 25.1674C22.6948 21.6268 19.8245 18.7566 16.2839 18.7566C12.7433 18.7566 9.87305 21.6268 9.87305 25.1674C9.87305 28.7081 12.7433 31.5783 16.2839 31.5783Z" fill="white"/>
<path d="M26.5294 22.0599C25.9895 22.0602 25.4591 22.202 24.9911 22.4711C24.523 22.7403 24.1337 23.1273 23.8618 23.5938C23.6387 23.8359 23.3695 24.0308 23.0698 24.1671C22.7702 24.3035 22.4463 24.3784 22.1173 24.3875C21.7882 24.3966 21.4607 24.3398 21.154 24.2203C20.8473 24.1008 20.5676 23.921 20.3315 23.6917C20.0281 22.8257 19.4629 22.0755 18.7141 21.545C17.9654 21.0145 17.0702 20.73 16.1526 20.731C14.98 20.731 13.8555 21.1968 13.0264 22.0259C12.1972 22.855 11.7314 23.9796 11.7314 25.1521C11.7316 26.3246 12.1975 27.449 13.0266 28.278C13.8557 29.107 14.9801 29.5727 16.1526 29.5727C17.0871 29.5727 17.9976 29.2766 18.7534 28.727C19.5093 28.1774 20.0716 27.4025 20.3596 26.5135C20.8238 26.0786 21.4383 25.8401 22.0744 25.8481C22.7104 25.8561 23.3187 26.1099 23.7719 26.5563C24.0212 27.0462 24.3966 27.4608 24.8595 27.7573C25.3224 28.0538 25.856 28.2215 26.4052 28.2432C26.9545 28.2649 27.4996 28.1397 27.9844 27.8806C28.4692 27.6215 28.8762 27.2378 29.1634 26.7691C29.4505 26.3004 29.6075 25.7635 29.6182 25.2139C29.6289 24.6643 29.4928 24.1218 29.224 23.6423C28.9552 23.1628 28.5635 22.7636 28.0891 22.4859C27.6147 22.2082 27.0748 22.062 26.5251 22.0624L26.5294 22.0599Z" fill="#F8D030"/>
<path d="M30.2209 17.9306C30.1276 16.1882 29.3857 14.5437 28.1411 13.3207C26.8965 12.0977 25.2393 11.3847 23.4955 11.3219C21.7517 11.2592 20.0475 11.8512 18.7182 12.9816C17.3889 14.112 16.5308 15.6989 16.3125 17.4301C16.4561 17.4224 16.6007 17.4183 16.7463 17.4179C17.314 17.4176 17.8799 17.4804 18.4338 17.6051C18.5309 16.9395 18.7652 16.3014 19.1217 15.731C19.4782 15.1606 19.9492 14.6704 20.5049 14.2914C21.0606 13.9124 21.6889 13.6529 22.35 13.5292C23.0112 13.4055 23.6908 13.4204 24.3459 13.5729C25.0011 13.7254 25.6174 14.0122 26.156 14.4152C26.6945 14.8181 27.1436 15.3285 27.4748 15.9139C27.806 16.4994 28.0121 17.1472 28.08 17.8163C28.148 18.4855 28.0763 19.1615 27.8696 19.8016C28.0072 19.79 28.1467 19.7833 28.2874 19.7833C29.5659 19.7813 30.7937 20.2831 31.7049 21.1798C32.6161 22.0766 33.1375 23.2962 33.156 24.5746C33.1745 25.8529 32.6887 27.0871 31.8038 28.0099C30.9189 28.9326 29.7062 29.4697 28.4282 29.5048V29.5152H22.9442C22.3247 30.3734 21.5344 31.0941 20.6229 31.6322H28.4282C30.0994 31.5981 31.7031 30.966 32.9482 29.8506C34.1932 28.7353 34.9972 27.2105 35.214 25.553C35.4309 23.8955 35.0464 22.2152 34.1303 20.817C33.2141 19.4188 31.8271 18.3954 30.2209 17.9324V17.9306Z" fill="white"/>
</g>
<path d="M65.36 17.24H67.64C67.664 17.048 67.664 16.88 67.664 16.712V15.68H66.464C66.128 16.256 65.744 16.784 65.36 17.24ZM74.12 21.776L72.104 23.6C71.432 23 70.088 22.016 69.008 21.272C68.144 22.496 66.752 23.72 64.592 24.728C64.208 24.152 63.416 23.264 62.792 22.808C65.24 21.848 66.464 20.672 67.064 19.472H63.08V17.24H64.688C64.112 16.88 63.344 16.448 62.864 16.208C64.088 15.056 65.024 13.304 65.504 11.528L68.024 12.056C67.88 12.512 67.736 12.992 67.544 13.472H73.496V15.68H70.376V16.76C70.376 16.928 70.376 17.072 70.352 17.24H74.048V19.472H70.088C71.096 20 73.496 21.368 74.12 21.776ZM78.992 26.192H69.08V27.536H78.992V26.192ZM69.08 31.016H78.992V29.6H69.08V31.016ZM66.272 34.088V23.96H81.92V34.064H78.992V33.296H69.08V34.088H66.272ZM81.152 20V15.944H77.504V20H81.152ZM74.864 13.424H83.984V22.52H74.864V13.424ZM90.848 27.416H94.424V26.024H90.848V27.416ZM94.424 22.64H90.848V23.912H94.424V22.64ZM97.256 20.288V31.184C97.256 32.432 97.016 33.128 96.2 33.536C95.408 33.992 94.28 34.016 92.864 34.016C92.72 33.272 92.288 32.168 91.928 31.496C92.792 31.544 93.728 31.52 94.04 31.496C94.328 31.496 94.424 31.424 94.424 31.136V29.528H90.848V34.064H88.208V20.288H97.256ZM93.32 14.024L95.744 13.136C96.848 14.768 98.072 16.904 98.456 18.416L95.864 19.448C95.792 19.088 95.648 18.68 95.48 18.248C89.696 18.728 88.76 18.896 88.136 19.136C87.992 18.584 87.512 17.24 87.176 16.472C87.56 16.376 87.944 16.064 88.352 15.536C88.712 15.056 89.84 13.376 90.512 11.6L93.536 12.392C92.864 13.76 91.904 15.176 90.992 16.328L94.496 16.112C94.136 15.392 93.704 14.672 93.32 14.024ZM105.872 22.4H102.584C99.8 22.4 99.104 21.584 99.104 18.968V11.744H101.936V15.2C103.568 14.552 105.176 13.832 106.28 13.184L108.104 15.248C106.28 16.136 104.024 16.88 101.936 17.504V18.92C101.936 19.784 102.08 19.88 102.992 19.88H105.584C106.376 19.88 106.52 19.52 106.64 17.432C107.216 17.864 108.344 18.296 109.136 18.464C108.824 21.536 108.056 22.4 105.872 22.4ZM103.064 31.424H105.752C106.592 31.424 106.736 30.968 106.856 28.568C107.456 28.976 108.584 29.408 109.352 29.6C109.064 32.96 108.296 33.92 106.016 33.92H102.656C99.848 33.92 99.128 33.08 99.128 30.464V22.928H101.96V26.168C103.664 25.496 105.32 24.704 106.472 23.936L108.344 26.024C106.496 27.008 104.144 27.872 101.96 28.568V30.464C101.96 31.304 102.128 31.424 103.064 31.424ZM129.248 26.96L127.376 28.76C127.04 28.016 126.56 27.176 126.008 26.264C125.192 28.304 124.136 30.08 122.84 31.472C122.36 31.064 121.208 30.272 120.632 29.96C122.288 28.4 123.44 26.264 124.28 23.672C123.344 22.4 122.312 21.128 121.28 20.024L123.008 18.464C123.68 19.16 124.376 19.928 125.048 20.744C125.312 19.472 125.528 18.152 125.672 16.784L128.192 17.024C127.928 19.256 127.544 21.344 127.016 23.288C127.952 24.584 128.744 25.88 129.248 26.96ZM114.752 20.264V29.192C116.024 27.8 116.984 25.928 117.704 23.768C116.72 22.568 115.712 21.32 114.752 20.264ZM132.152 12.992V30.632C132.152 32.24 131.792 33.032 130.736 33.488C129.728 33.968 128.192 34.04 125.912 34.016C125.768 33.224 125.288 31.904 124.856 31.136C126.368 31.256 128.12 31.232 128.6 31.232C129.104 31.208 129.296 31.04 129.296 30.584V15.704H114.752V19.832L116.144 18.344C116.888 19.136 117.68 20.024 118.448 20.912C118.736 19.592 118.928 18.176 119.096 16.736L121.64 17C121.352 19.256 120.944 21.368 120.44 23.288C121.28 24.344 122.024 25.376 122.576 26.168L120.848 28.16C120.512 27.584 120.032 26.888 119.48 26.12C118.688 28.136 117.704 29.888 116.432 31.256C116.096 30.944 115.376 30.416 114.752 30.056V34.04H111.896V12.992H132.152ZM141.488 15.632V17.6C141.488 17.912 141.488 18.224 141.464 18.56H146.12C145.256 18.056 144.224 17.576 143.336 17.24L144.608 15.632H141.488ZM151.16 18.56V15.632H144.8C146.12 16.088 147.776 16.88 148.664 17.552L147.896 18.56H151.16ZM151.16 22.496V21.008H144.8C146.072 21.512 147.608 22.256 148.448 22.832C149.384 22.856 150.416 22.856 150.728 22.856C151.04 22.856 151.16 22.76 151.16 22.496ZM142.328 27.776H140.288V30.992H142.328V27.776ZM147.008 27.776H144.92V30.992H147.008V27.776ZM151.688 27.776H149.624V30.992H151.688V27.776ZM148.376 22.928L147.056 24.656C146.192 24.008 144.392 23.048 143.024 22.472L144.224 21.008H141.08C140.648 22.688 139.736 24.368 138.032 25.568H154.496V30.992H156.944V33.44H135.056V30.992H137.624V25.808C137.192 25.232 136.16 24.224 135.56 23.84C136.88 23 137.648 22.04 138.104 21.008H135.176V18.56H138.656C138.68 18.2 138.68 17.864 138.68 17.528V13.4H144.008C144.272 12.752 144.536 12.032 144.68 11.48L147.824 12.008C147.584 12.488 147.344 12.968 147.128 13.4H154.04V18.56H157.016V21.008H154.04V22.52C154.04 23.744 153.776 24.416 152.888 24.8C152.024 25.184 150.8 25.208 149.168 25.208C149.048 24.512 148.712 23.576 148.376 22.928Z" fill="#181C27"/>
<defs>
<linearGradient id="paint0_linear_59_1103" x1="2.76552" y1="2.76552" x2="43.2345" y2="43.2345" gradientUnits="userSpaceOnUse">
<stop stop-color="#247EFF"/>
<stop offset="1" stop-color="#064EF8"/>
</linearGradient>
<clipPath id="clip0_59_1103">
<rect width="46" height="46" fill="white"/>
</clipPath>
</defs>
</svg>
